<?xml version="1.0" encoding="utf-8"?>
<!-- Generator: Adobe Illustrator 19.1.0, SVG Export Plug-In . SVG Version: 6.00 Build 0)  -->
<svg version="1.1" id="Layer_1" xmlns="http://www.w3.org/2000/svg" xmlns:xlink="http://www.w3.org/1999/xlink" x="0px" y="0px"
fill="#02E24" width="1000px" height="1000px" viewBox="0 0 1000 1000" style="enable-background:new 0 0 1000 1000;" xml:space="preserve">
<path d="M310.1,71.5c-1.2-5-6.7-11.1,1.3-14c2-0.8,8,5,9.8,8.8c56.9,120.4,222,147,312.7,49.5c13.7-14.7,22.7-33.8,34.3-50.5
	c0.7-1,1.5-1.9,2.5-2.7c3.4-3,8.9-0.8,9.2,3.7c0.1,1.2,0,2.3-0.4,3.3c-44.4,116.6,38.2,238.2,154.3,256.1
	c30.2,4.6,60.3,2.3,88.8-10.2c1.3-0.6,2.9-1.8,4.1-1.5c1,0.2,2.1,0.4,3.1,0.7c4.9,1.3,6.6,7.7,2.5,10.9c-0.2,0.1-0.3,0.2-0.5,0.4
	c-13.5,8.6-28.5,15.1-40.8,25c-53.1,42.9-75.1,99.7-69.6,166.9c5.1,62.8,34.7,111.5,88.3,144.9c6.5,4.1,14.4,6.2,20.9,10.5
	c0.9,0.6,1.7,1.4,2.4,2.2c3.3,4,0.4,10.2-4.8,10.3c-0.9,0-1.8-0.1-2.6-0.4c-110-42.5-225.5,31-252.3,134.4
	c-9.3,36-7.6,71.5,4.7,106.6c1.2,3.5,3.1,7,3.2,10.6c0.1,2.3-2,5.5-4,6.6c-1.2,0.7-4.8-1.2-6.3-2.7c-1.7-1.7-2.4-4.5-3.5-6.9
	c-33.6-72.7-110.6-115.7-190.9-107c-72.2,7.9-124.5,43.4-156.1,109.3c-0.4,0.7-0.9,1.4-1.5,2c-4.2,4-11,0.5-9.9-5.2
	c0.1-0.4,0.2-0.7,0.3-1.1c50.9-134.1-62.8-266.5-191-258c-18,1.2-35.5,7.6-53.3,11c-1.3,0.3-2.6,0.3-4,0.3c-4.7-0.2-7.1-5.8-3.9-9.4
	c0.9-1,1.9-1.9,3.1-2.4c117.9-53.4,139-202.6,69.2-292c-18.7-23.9-42.3-41.7-69.7-54.7c-0.2-0.1-0.5-0.2-0.7-0.4
	c-5.4-3.3-2.9-11.7,3.4-11.9c0.9,0,1.8,0.1,2.6,0.4c104,45.2,236.6-30.3,255.3-154.2c1.2-8.5,1.2-17.1,1.8-25.7
	C322.8,134.7,314.9,92.4,310.1,71.5z M650.4,866.5C668.4,739.6,738.9,671.2,865,659c-15.7-6.4-31.1-13.6-47.1-19.3
	c-26-9.2-52.3-15.8-80.7-11.3c-70.5,10.9-126,81.6-114.2,151.6C628,809.5,641.1,837.7,650.4,866.5z M125.8,656.4
	c0.4,1.4,0.7,3,1.1,4.4c56.9,0.3,105.3,21.1,145.6,60.7c40.1,39.5,60.5,88,63.1,144.5c8.6-18.5,16.3-36.9,23.7-55.4
	c9.5-23.8,11.1-48.4,6.2-73.5c-13.3-68.4-82.7-120-150.9-108.4C184.3,634,155.3,647,125.8,656.4z M642.6,130.6c-1-0.5-1.9-1-2.9-1.4
	c-76.3,76.5-215.3,79.2-294.2-2.7c8.5,21.2,17.1,42.5,27.2,63c44.7,91.2,176.6,101.4,233.2,17C621.5,183.3,630.6,155.9,642.6,130.6z
	 M122.1,348.9c-0.9,1.3-1.7,2.6-2.6,3.9c40.9,39.9,61,88.8,61.6,145.2c0.7,56-18,105.4-56.4,147.3c23.6-9,47.7-16.7,68.9-29.2
	c80.8-47.3,87.6-168.3,11.7-223.4C180.2,374.5,150,363.2,122.1,348.9z M652.8,134.9c-7.1,17.1-14,34.2-21.2,51.2
	c-34.8,82,21.4,167.7,100,185.4C779,382,817.1,358,857.8,341.3c-55.2-3.4-102.5-23.7-141.5-62.7C677,239.2,656.1,191.7,652.8,134.9z
	 M641.1,870.3c-7.2-17.5-14.3-35-21.7-52.4c-24.9-58.3-87.6-91.2-150-78.9c-32.3,6.3-59.4,21.2-80.3,46.8
	c-20.6,25.2-27.8,56.6-40.5,85.4C425.8,795.2,562.4,793.9,641.1,870.3z M868,350.9c-19.9,8.7-40,17-59.6,26.3
	C743.1,408.6,714.9,482.8,740,551c21.4,57.9,72.3,74.8,125.7,93.9c-40.3-43.1-58.5-92.1-57.7-148.1C809,440.7,829.5,392.6,868,350.9
	z M132.7,342.4c17.5,7.3,35.2,14.1,52.4,21.9c23.7,10.7,48.2,11.9,73.2,6.8c72.9-14.9,122.9-89.1,106.4-161.3
	c-5.2-23-17-44.4-25.9-66.4c-1-2.3-2.3-4.5-4.4-8.6C331.3,247.6,241.6,336,132.7,342.4z M753.1,612c-15.5-5.7-30.8-11.8-46.5-16.9
	c-52-17-106.3,13.2-119.9,66.2c-9,35.2,7.7,64.1,21,96.2C618.9,664.1,689.5,618.6,753.1,612z M391.7,240.4
	c8.1,17.1,15.1,34.7,24.4,51.1c17.2,30.4,54,47.4,88.4,42.8c56.8-7.6,74.7-44.1,89.5-94.1C538,287.6,451,288.6,391.7,240.4z
	 M238.9,613.6c81.4,12.6,129.3,59.2,142.8,143.6c6.3-15.5,12.2-28.6,17.3-42.2c13.2-35.1,6.6-67.3-18.7-94.1
	C338.3,576.4,291,584.8,238.9,613.6z M234.6,396.1c-0.6,1.2-1.2,2.2-1.7,3.4c44.1,49.3,54.2,135.2,1.4,201.2c14.3-6,26.5-11,38.7-16
	c64-26.2,76.9-114.2,21.6-156.2C276.7,414.8,254.6,406.6,234.6,396.1z M607.7,244c-6,14.1-11.2,26.3-16.1,38.6
	c-19.7,48.7,3.3,101.4,51.8,122c38.6,16.4,70.3-2.5,105.3-17.5C667.3,372.6,620.8,326.3,607.7,244z M756.1,399.6
	c-0.5-0.9-0.9-1.7-1.3-2.6c-18.5,9.1-38.2,16.4-55.4,27.7c-50.8,33.5-53.1,112.8-3.7,148.3c16.7,12,37.7,18.1,56.6,26.8
	C703.5,535.7,710.6,451.5,756.1,399.6z M595.9,761.5c-5.9-14.1-10.9-26.1-15.9-38.1c-19-45.6-66.3-67.5-113.9-53.2
	c-44.9,13.5-57.9,51.4-71.9,90.4C476.2,712.1,518.1,712.1,595.9,761.5z M242.9,388.6c18.2,6.9,35.8,16.1,54.7,20.5
	c43.1,9.8,89.7-20,103.4-64c6.2-19.9,6.2-39.6-2.6-58.8c-3-6.4-5.5-13.1-8.3-19.5c-2.6-6.1-5.4-12.1-8.9-20.2
	C367.6,327.6,320.9,372.4,242.9,388.6z M664.7,575.3c-11.8-4.1-23.5-8.6-35.6-12.2c-27.4-8-53.3,2.8-67.5,27.6
	c-12.2,21.5-6.6,60.4,10.9,76.7C583.5,617.7,614.5,588.3,664.7,575.3z M417.7,670.9c5.7-14.6,11.1-26,14.7-38.1
	c9.5-31.9-12.9-66.3-45.8-71.7c-22.8-3.7-41.4,7.1-63.6,16.3C375.4,588.5,405.9,618.6,417.7,670.9z M428,327.7
	c6.4,13.2,11.7,27.1,19.6,39.4c20.8,32.1,70.9,33.2,92.6,1.8c8.5-12.2,13.4-26.9,19.9-40.5C515.3,354.2,472.3,354,428,327.7z
	 M320.2,434.5c13.1,19.5,20.4,40.4,20.9,63.7c0.6,23.5-6.7,44.7-20.3,66.6c12-5,21.2-8.8,30.5-12.7c25.9-10.7,39.3-37.2,33-64.6
	C376.5,453.4,347.8,445,320.2,434.5z M662.2,422.4c-24.5-5.3-44-15.3-60.1-31.5c-16-16.1-25.2-35.7-29.9-58.9
	c-22.9,40.7-23,68.4-1.2,90.7C592.7,445.2,617.2,445.5,662.2,422.4z M428.8,675.2c44.5-28.3,86.5-28.2,130.8-0.7
	c-5-12.2-8.8-21.7-12.9-31.1c-9.5-22.3-27.3-33.3-50.6-34c-22.4-0.7-40.7,8.7-51.5,29.1C438.9,649.3,434.9,660.9,428.8,675.2z
	 M670,434.1c-49.8,16.7-70.1,38.5-66.2,70.5c4.5,37.6,23.9,45.7,62.5,56.8C640.9,518.9,641.5,476.9,670,434.1z M417.1,331.7
	c-11.2,50.3-41.2,78.7-89.9,91.1c12,5.1,21.3,8.7,30.5,12.9c22.2,10.1,41.6,4.3,58.4-11.2c17-15.7,23-35.4,15.6-57.9
	C428,355.8,422.9,345.4,417.1,331.7z M504.5,509.7c13.6,32.5,25.8,61.9,38.8,93.4c8.9-28.8,27.3-45.6,56.1-54.1
	C567.2,535.6,537.4,523.3,504.5,509.7z M390.3,549.3c28.6,8.4,46.1,25,55.5,53.1c13-31.5,24.9-60.4,38-91.9
	C451.6,523.9,422.5,536,390.3,549.3z M456.2,393.3c13.1,31.3,25.1,60.4,38.2,92c13.1-31.4,25-60.3,37.9-91.3
	C505.8,406.6,482,406.5,456.2,393.3z M389.6,462.1c11.5,24.9,10.7,48.7-0.2,74.4c30.8-12.8,58.9-24.5,89.7-37.2
	C447.5,486.1,418.6,474.1,389.6,462.1z M602.3,461.3c-31.9,13.3-60.4,25.2-91,37.9c30.6,12.6,58.4,24.1,89,36.8
	C588.2,510.2,588.7,487.1,602.3,461.3z M494.3,517.3c-12.7,30.7-24.3,58.9-37,89.6c25.6-12.8,48.8-12.6,74.2-0.4
	C518.7,575.9,506.9,547.6,494.3,517.3z M542.9,399.6c-12.1,29.5-23.7,57.7-36.3,88.2c30.9-12.9,58.8-24.5,87.8-36.6
	C562.7,435.8,559.1,432.1,542.9,399.6z M481.8,487c-12.8-30.7-24.2-58.1-36.6-87.7c-8.6,26.7-25.4,42.3-50.6,51.6
	C423.9,463,451.3,474.3,481.8,487z"/>
</svg>
